<svg xmlns="http://www.w3.org/2000/svg" viewBox="0 0 220 430">
  <!-- Door body -->
  <rect x="20" y="20" width="180" height="410" fill="#333333" stroke="#222222" stroke-width="2"/>
  
  <!-- Door details -->
  <rect x="30" y="30" width="160" height="390" fill="#2a2a2a"/>
  
  <!-- Warning stripes -->
  <rect x="40" y="80" width="140" height="30" fill="#aa0000"/>
  <rect x="40" y="110" width="140" height="30" fill="#222222"/>
  <rect x="40" y="140" width="140" height="30" fill="#aa0000"/>
  <rect x="40" y="170" width="140" height="30" fill="#222222"/>
  <rect x="40" y="200" width="140" height="30" fill="#aa0000"/>
  <rect x="40" y="230" width="140" height="30" fill="#222222"/>
  <rect x="40" y="260" width="140" height="30" fill="#aa0000"/>
  <rect x="40" y="290" width="140" height="30" fill="#222222"/>
  <rect x="40" y="320" width="140" height="30" fill="#aa0000"/>
  
  <!-- Handle/lock mechanism -->
  <rect x="150" y="200" width="20" height="60" rx="5" ry="5" fill="#111111" stroke="#0a0a0a" stroke-width="1"/>
  
  <!-- Bolts/rivets -->
  <circle cx="40" cy="50" r="5" fill="#111111"/>
  <circle cx="180" cy="50" r="5" fill="#111111"/>
  <circle cx="40" cy="380" r="5" fill="#111111"/>
  <circle cx="180" cy="380" r="5" fill="#111111"/>
  
  <!-- Additional security details -->
  <rect x="80" y="50" width="60" height="10" fill="#1a1a1a"/>
  <rect x="80" y="370" width="60" height="10" fill="#1a1a1a"/>
</svg>
