<svg xmlns="http://www.w3.org/2000/svg" viewBox="0 0 1000 600">
  <!-- Main background -->
  <rect x="0" y="0" width="1000" height="600" fill="#0a0a0a"/>
  
  <!-- Floor -->
  <rect x="0" y="430" width="1000" height="170" fill="#111111"/>
  
  <!-- Left wall -->
  <rect x="0" y="0" width="250" height="430" fill="#1a1a1a"/>
  
  <!-- Right wall -->
  <rect x="750" y="0" width="250" height="430" fill="#1a1a1a"/>
  
  <!-- Center wall -->
  <rect x="250" y="0" width="500" height="430" fill="#151515"/>
  
  <!-- Left door frame -->
  <rect x="0" y="0" width="20" height="430" fill="#080808"/>
  <rect x="20" y="0" width="180" height="20" fill="#080808"/>
  <rect x="200" y="0" width="20" height="430" fill="#080808"/>
  
  <!-- Right door frame -->
  <rect x="780" y="0" width="20" height="430" fill="#080808"/>
  <rect x="800" y="0" width="180" height="20" fill="#080808"/>
  <rect x="980" y="0" width="20" height="430" fill="#080808"/>
  
  <!-- Desk -->
  <rect x="200" y="430" width="600" height="20" fill="#222222"/>
  <rect x="220" y="450" width="560" height="80" fill="#1c1c1c"/>
  
  <!-- Monitor setup -->
  <rect x="450" y="330" width="100" height="100" fill="#0a0a0a"/>
  <rect x="455" y="335" width="90" height="65" fill="#131313"/>
  <rect x="460" y="340" width="80" height="55" fill="#062636"/>
  <rect x="480" y="430" width="40" height="20" fill="#131313"/>
  
  <!-- Fan -->
  <circle cx="350" cy="370" r="20" fill="#222222"/>
  <circle cx="350" cy="370" r="15" fill="#1a1a1a"/>
  <rect x="335" y="367" width="30" height="6" fill="#333333"/>
  <rect x="347" y="355" width="6" height="30" fill="#333333"/>
  
  <!-- Papers/items on desk -->
  <rect x="280" y="380" width="40" height="30" fill="#cccccc" opacity="0.1"/>
  <rect x="650" y="390" width="70" height="20" fill="#cccccc" opacity="0.1"/>
  
  <!-- Left door panel -->
  <rect x="205" y="150" width="50" height="120" fill="#111111" stroke="#0a0a0a" stroke-width="2"/>
  <rect x="215" y="170" width="30" height="30" rx="15" ry="15" fill="#330000"/>
  <rect x="215" y="220" width="30" height="30" rx="15" ry="15" fill="#333300"/>
  
  <!-- Right door panel -->
  <rect x="745" y="150" width="50" height="120" fill="#111111" stroke="#0a0a0a" stroke-width="2"/>
  <rect x="755" y="170" width="30" height="30" rx="15" ry="15" fill="#330000"/>
  <rect x="755" y="220" width="30" height="30" rx="15" ry="15" fill="#333300"/>
  
  <!-- Ceiling details -->
  <rect x="250" y="10" width="500" height="20" fill="#0c0c0c"/>
  <rect x="300" y="10" width="400" height="10" fill="#111111"/>
  
  <!-- Posters -->
  <rect x="50" y="100" width="80" height="120" fill="#070e18"/>
  <rect x="870" y="100" width="80" height="120" fill="#100c18"/>
  
  <!-- Vents -->
  <rect x="300" y="50" width="80" height="40" fill="#080808"/>
  <rect x="620" y="50" width="80" height="40" fill="#080808"/>
  
  <!-- Warning lights -->
  <circle cx="100" cy="50" r="10" fill="#330000"/>
  <circle cx="900" cy="50" r="10" fill="#330000"/>
  
  <!-- Air ducts/pipes -->
  <rect x="250" y="30" width="500" height="10" fill="#111111"/>
  
  <!-- Subtle shadow gradients -->
  <rect x="0" y="0" width="1000" height="600" fill="url(#shadow-gradient)" opacity="0.4"/>
  
  <!-- Desk shadow -->
  <rect x="200" y="430" width="600" height="10" fill="#000000" opacity="0.5"/>
  
  <!-- Defs for gradients and patterns -->
  <defs>
    <linearGradient id="shadow-gradient" x1="0%" y1="0%" x2="0%" y2="100%">
      <stop offset="0%" style="stop-color:#000000;stop-opacity:0.8"/>
      <stop offset="50%" style="stop-color:#000000;stop-opacity:0.1"/>
      <stop offset="100%" style="stop-color:#000000;stop-opacity:0.9"/>
    </linearGradient>
  </defs>
</svg>
