<svg xmlns="http://www.w3.org/2000/svg" viewBox="0 0 100 100">
  <!-- Button housing -->
  <circle cx="50" cy="50" r="48" fill="#222222" stroke="#111111" stroke-width="4"/>
  
  <!-- Button face -->
  <circle cx="50" cy="50" r="40" fill="#004400" stroke="#003300" stroke-width="2"/>
  <circle cx="50" cy="50" r="35" fill="#006600"/>
  
  <!-- Phone icon -->
  <path d="M35,35 C35,35 35,40 40,45 C45,50 50,55 50,55 C50,55 52,58 55,55 C58,52 60,50 60,50 C60,50 65,55 60,60 C55,65 45,65 35,55 C25,45 25,35 30,30 C35,25 40,30 40,30 C40,30 38,32 35,35 Z" fill="#ffffff"/>
  
  <!-- Button highlight -->
  <circle cx="40" cy="40" r="10" fill="#ffffff" opacity="0.2"/>
</svg>
