<svg xmlns="http://www.w3.org/2000/svg" viewBox="0 0 1000 600">
  <!-- Static pattern definition -->
  <defs>
    <pattern id="static-pattern" patternUnits="userSpaceOnUse" width="100" height="100">
      <rect width="100" height="100" fill="#000000"/>
      <!-- Layer 1: Tiny white dots for static -->
      <g fill="#ffffff">
        <rect x="5" y="10" width="2" height="2" opacity="0.2"/>
        <rect x="12" y="35" width="1" height="1" opacity="0.3"/>
        <rect x="25" y="22" width="2" height="2" opacity="0.15"/>
        <rect x="32" y="45" width="1" height="1" opacity="0.25"/>
        <rect x="45" y="5" width="1" height="1" opacity="0.2"/>
        <rect x="55" y="33" width="2" height="2" opacity="0.15"/>
        <rect x="67" y="17" width="1" height="1" opacity="0.3"/>
        <rect x="78" y="42" width="2" height="2" opacity="0.2"/>
        <rect x="89" y="9" width="1" height="1" opacity="0.1"/>
        <rect x="95" y="28" width="2" height="2" opacity="0.25"/>
        
        <rect x="8" y="50" width="1" height="1" opacity="0.2"/>
        <rect x="15" y="65" width="2" height="2" opacity="0.15"/>
        <rect x="29" y="57" width="1" height="1" opacity="0.3"/>
        <rect x="38" y="72" width="2" height="2" opacity="0.25"/>
        <rect x="49" y="55" width="1" height="1" opacity="0.1"/>
        <rect x="59" y="68" width="2" height="2" opacity="0.2"/>
        <rect x="72" y="59" width="1" height="1" opacity="0.3"/>
        <rect x="83" y="74" width="2" height="2" opacity="0.15"/>
        <rect x="92" y="53" width="1" height="1" opacity="0.25"/>
        <rect x="98" y="67" width="2" height="2" opacity="0.2"/>
        
        <rect x="3" y="83" width="2" height="2" opacity="0.15"/>
        <rect x="18" y="95" width="1" height="1" opacity="0.2"/>
        <rect x="27" y="88" width="2" height="2" opacity="0.3"/>
        <rect x="39" y="99" width="1" height="1" opacity="0.1"/>
        <rect x="52" y="85" width="2" height="2" opacity="0.25"/>
        <rect x="63" y="97" width="1" height="1" opacity="0.2"/>
        <rect x="75" y="82" width="2" height="2" opacity="0.15"/>
        <rect x="85" y="94" width="1" height="1" opacity="0.3"/>
        <rect x="96" y="87" width="2" height="2" opacity="0.2"/>
      </g>
      
      <!-- Layer 2: Larger noise bursts -->
      <g fill="#ffffff">
        <rect x="10" y="20" width="4" height="4" opacity="0.05"/>
        <rect x="35" y="15" width="3" height="3" opacity="0.07"/>
        <rect x="65" y="25" width="5" height="5" opacity="0.04"/>
        <rect x="85" y="12" width="3" height="3" opacity="0.06"/>
        
        <rect x="15" y="55" width="4" height="4" opacity="0.07"/>
        <rect x="45" y="65" width="5" height="5" opacity="0.05"/>
        <rect x="75" y="48" width="3" height="3" opacity="0.04"/>
        <rect x="90" y="70" width="4" height="4" opacity="0.06"/>
        
        <rect x="25" y="80" width="3" height="3" opacity="0.05"/>
        <rect x="50" y="92" width="5" height="5" opacity="0.07"/>
        <rect x="80" y="85" width="4" height="4" opacity="0.04"/>
      </g>
    </pattern>
  </defs>
  
  <!-- Background for animation -->
  <rect width="1000" height="600" fill="#000000" opacity="0"/>
  
  <!-- Static overlay -->
  <rect width="1000" height="600" fill="url(#static-pattern)" opacity="0.2">
    <animate attributeName="opacity" values="0.2;0.25;0.15;0.3;0.2" dur="0.5s" repeatCount="indefinite"/>
  </rect>
  
  <!-- Horizontal scan lines -->
  <g opacity="0.1">
    <rect y="10" width="1000" height="1" fill="#ffffff"/>
    <rect y="20" width="1000" height="1" fill="#ffffff"/>
    <rect y="30" width="1000" height="1" fill="#ffffff"/>
    <rect y="40" width="1000" height="1" fill="#ffffff"/>
    <rect y="50" width="1000" height="1" fill="#ffffff"/>
    <rect y="60" width="1000" height="1" fill="#ffffff"/>
    <rect y="70" width="1000" height="1" fill="#ffffff"/>
    <rect y="80" width="1000" height="1" fill="#ffffff"/>
    <rect y="90" width="1000" height="1" fill="#ffffff"/>
    <rect y="100" width="1000" height="1" fill="#ffffff"/>
    <!-- (Pattern would continue for the entire height) -->
  </g>
  
  <!-- Random flickering lines -->
  <rect x="0" y="150" width="1000" height="2" fill="#ffffff" opacity="0.15">
    <animate attributeName="y" values="150;220;180;300;150" dur="3s" repeatCount="indefinite"/>
    <animate attributeName="opacity" values="0.15;0.3;0.1;0.2;0.15" dur="2s" repeatCount="indefinite"/>
  </rect>
  
  <rect x="0" y="350" width="1000" height="3" fill="#ffffff" opacity="0.1">
    <animate attributeName="y" values="350;275;400;320;350" dur="4s" repeatCount="indefinite"/>
    <animate attributeName="opacity" values="0.1;0.25;0.05;0.15;0.1" dur="3s" repeatCount="indefinite"/>
  </rect>
  
  <!-- Glitchy frames that occasionally appear -->
  <rect x="0" y="0" width="1000" height="600" fill="#ffffff" opacity="0">
    <animate attributeName="opacity" values="0;0;0;0;0.1;0" dur="10s" repeatCount="indefinite"/>
  </rect>
  
  <!-- Very subtle color distortion -->
  <rect x="0" y="0" width="1000" height="600" fill="#0000ff" opacity="0.02">
    <animate attributeName="opacity" values="0.02;0.03;0.01;0.04;0.02" dur="5s" repeatCount="indefinite"/>
  </rect>
  
  <rect x="0" y="0" width="1000" height="600" fill="#ff0000" opacity="0.01">
    <animate attributeName="opacity" values="0.01;0.02;0.03;0.01;0.02;0.01" dur="7s" repeatCount="indefinite"/>
  </rect>
</svg>
